# xmcd
#
# Track frame offsets:
#	150
#	15800
#	39022
#	57140
#	73805
#	78217
#	93632
#	106555
#	141392
#	145747
#	162822
#	179632
#	201575
#	232832
#	246270
#	275607
#	304715
#	314130
#
# Disc length: 4382 seconds
#
# Revision: 1
# Processed by: cddbd v1.4PL0 Copyright (c) Steve Scherf et al.
# Submitted via: audiograbber 1.81.01
#
DISCID=f4111c12
DTITLE=Slavek - La baignoire pleine d'histoires
DYEAR=1995
DGENRE=blues
TTITLE0=Accroché au Bar
TTITLE1=Jaka Ona
TTITLE2=You get a Hammer
TTITLE3=Czar Milosci
TTITLE4=Adel Blues *
TTITLE5=Adel Blues **
TTITLE6=Orphée le Chat
TTITLE7=Every Day I Got the Blues
TTITLE8=Hey Dziewczyno *
TTITLE9=Hey Dziewczyno **
TTITLE10=Le Paradis
TTITLE11=Potrzeba Zmiani
TTITLE12=La Bretagne Blues
TTITLE13=La Vie Quelle Aventure
TTITLE14=La  Baignoire Pleine d'Histoires
TTITLE15=Breizh Texas
TTITLE16=Scuttle Buttin' - Hommage à SRV
TTITLE17=La Baignoire Pleine d'Histoires - Version Courte
EXTD=BNS-95351-F
EXTT0=
EXTT1=
EXTT2=
EXTT3=
EXTT4=
EXTT5=
EXTT6=
EXTT7=
EXTT8=
EXTT9=
EXTT10=
EXTT11=
EXTT12=
EXTT13=
EXTT14=
EXTT15=
EXTT16=
EXTT17=
PLAYORDER=
